{
    "asset" : {
        "generator" : "Khronos glTF Blender I/O v1.7.33",
        "version" : "2.0"
    },
    "scene" : 0,
    "scenes" : [
        {
            "name" : "Scene",
            "nodes" : [
                0
            ]
        }
    ],
    "nodes" : [
        {
            "mesh" : 0,
            "name" : "main_0_low"
        }
    ],
    "materials" : [
        {
            "doubleSided" : true,
            "emissiveFactor" : [
                1,
                1,
                1
            ],
            "name" : "M_R14_0",
            "pbrMetallicRoughness" : {
                "baseColorFactor" : [
                    0.800000011920929,
                    0.800000011920929,
                    0.800000011920929,
                    1
                ],
                "metallicFactor" : 0,
                "roughnessFactor" : 0.5
            }
        }
    ],
    "meshes" : [
        {
            "name" : "Cube.023",
            "primitives" : [
                {
                    "attributes" : {
                        "POSITION" : 0,
                        "NORMAL" : 1,
                        "TEXCOORD_0" : 2,
                        "TEXCOORD_1" : 3,
                        "COLOR_0" : 4
                    },
                    "indices" : 5,
                    "material" : 0
                }
            ]
        }
    ],
    "accessors" : [
        {
            "bufferView" : 0,
            "componentType" : 5126,
            "count" : 12097,
            "max" : [
                15.314132690429688,
                9.515694618225098,
                3.398650884628296
            ],
            "min" : [
                -19.13860511779785,
                -2.1555466651916504,
                -1.9177285432815552
            ],
            "type" : "VEC3"
        },
        {
            "bufferView" : 1,
            "componentType" : 5126,
            "count" : 12097,
            "type" : "VEC3"
        },
        {
            "bufferView" : 2,
            "componentType" : 5126,
            "count" : 12097,
            "type" : "VEC2"
        },
        {
            "bufferView" : 3,
            "componentType" : 5126,
            "count" : 12097,
            "type" : "VEC2"
        },
        {
            "bufferView" : 4,
            "componentType" : 5123,
            "count" : 12097,
            "normalized" : true,
            "type" : "VEC4"
        },
        {
            "bufferView" : 5,
            "componentType" : 5123,
            "count" : 42153,
            "type" : "SCALAR"
        }
    ],
    "bufferViews" : [
        {
            "buffer" : 0,
            "byteLength" : 145164,
            "byteOffset" : 0
        },
        {
            "buffer" : 0,
            "byteLength" : 145164,
            "byteOffset" : 145164
        },
        {
            "buffer" : 0,
            "byteLength" : 96776,
            "byteOffset" : 290328
        },
        {
            "buffer" : 0,
            "byteLength" : 96776,
            "byteOffset" : 387104
        },
        {
            "buffer" : 0,
            "byteLength" : 96776,
            "byteOffset" : 483880
        },
        {
            "buffer" : 0,
            "byteLength" : 84306,
            "byteOffset" : 580656
        }
    ],
    "buffers" : [
        {
            "byteLength" : 664964,
            "uri" : "data:application/octet-stream;base64,"
        }
    ]
}
